<svg xmlns="http://www.w3.org/2000/svg" width="1024" height="1024" viewBox="0 0 1024 1024"
     style="background-color: transparent;">
    <path fill="#3bd9d7"
          d="M 697.43 410.73 L 505.41 610.93 A 0.44 0.44 0.0 0 1 504.78 610.93 L 462.11 568.26 A 0.44 0.44 0.0 0 0 461.48 568.26 L 354.46 679.84 A 0.44 0.44 0.0 0 1 354.14 679.98 L 317.66 679.98 A 0.44 0.44 0.0 0 1 317.34 679.24 L 461.27 529.18 A 0.44 0.44 0.0 0 1 461.90 529.18 L 504.62 571.90 A 0.44 0.44 0.0 0 0 505.25 571.90 L 677.99 391.80 A 0.44 0.44 0.0 0 0 677.97 391.18 L 651.65 365.94 A 0.44 0.44 0.0 0 1 651.86 365.19 L 741.11 344.03 A 0.44 0.44 0.0 0 1 741.64 344.53 L 725.20 435.81 A 0.44 0.44 0.0 0 1 724.46 436.05 L 698.05 410.71 A 0.44 0.44 0.0 0 0 697.43 410.73 Z"/>
    <path fill="#3285e8"
          d="M 325.95 531.97 L 350.61 497.44 A 4.58 4.57 -81.0 0 1 352.92 495.76 L 528.09 440.65 A 0.20 0.20 0.0 0 0 528.16 440.31 L 503.30 417.93 A 0.92 0.92 0.0 0 0 502.36 417.76 Q 443.18 440.83 375.32 466.34 Q 374.69 466.58 374.26 466.47 A 0.23 0.23 0.0 0 1 374.13 466.12 Q 388.28 445.56 400.23 428.80 C 401.35 427.23 404.53 426.29 406.43 425.56 Q 408.09 424.93 507.79 386.51 A 1.75 1.74 55.3 0 1 509.59 386.84 L 558.04 430.45 A 0.87 0.87 0.0 0 0 558.89 430.64 L 636.72 406.15 A 0.28 0.28 0.0 0 1 637.00 406.61 Q 619.18 424.62 598.63 446.15 Q 597.35 447.50 594.36 448.44 Q 427.94 500.70 326.28 532.44 A 0.31 0.30 -80.5 0 1 325.95 531.97 Z"/>
    <path fill="#3285e8"
          d="M 600.38 652.54 L 640.98 652.52 L 656.09 652.48 A 0.34 0.34 0.0 0 0 656.41 652.25 L 712.53 494.39 A 0.37 0.37 0.0 0 0 712.10 493.91 L 626.35 514.24 A 0.48 0.48 0.0 0 1 625.90 513.44 L 659.26 479.39 A 6.04 5.97 15.3 0 1 662.16 477.76 L 754.70 455.82 A 0.53 0.53 0.0 0 1 755.32 456.51 L 676.07 679.41 A 0.87 0.86 9.4 0 1 675.25 679.99 L 382.71 679.99 A 0.42 0.42 0.0 0 1 382.40 679.28 L 461.42 596.90 A 0.58 0.57 44.0 0 1 462.24 596.89 L 480.70 614.59 A 0.76 0.76 0.0 0 1 480.72 615.67 L 445.88 651.99 A 0.34 0.34 0.0 0 0 446.12 652.56 L 485.12 652.56 A 0.47 0.46 -90.0 0 0 485.58 652.09 L 485.58 620.58 A 0.35 0.35 0.0 0 1 486.17 620.33 L 504.80 638.95 A 0.62 0.61 -45.3 0 0 505.68 638.94 L 525.73 618.04 A 0.41 0.41 0.0 0 1 526.43 618.32 L 526.43 652.15 A 0.41 0.41 0.0 0 0 526.84 652.56 L 542.25 652.56 A 0.86 0.86 0.0 0 0 543.11 651.70 L 543.11 601.30 A 2.40 2.37 67.3 0 1 543.78 599.64 L 583.12 558.61 A 0.36 0.36 0.0 0 1 583.74 558.86 L 583.74 651.95 A 0.48 0.48 0.0 0 0 584.22 652.43 L 600.38 652.54 Z"/>
    <path fill="#3285e8"
          d="M 542.04 504.98 L 505.00 543.61 A 0.31 0.31 0.0 0 1 504.56 543.62 L 480.42 519.49 A 0.31 0.31 0.0 0 1 480.57 518.97 L 541.75 504.46 A 0.31 0.31 0.0 0 1 542.04 504.98 Z"/>
    <path fill="#3285e8"
          d="M 431.91 530.53 A 0.48 0.47 15.5 0 1 432.36 531.32 Q 412.59 551.37 398.77 565.80 Q 397.43 567.20 394.84 567.71 Q 386.00 569.45 381.09 570.65 Q 356.72 576.63 307.31 588.11 A 0.50 0.49 -18.7 0 0 306.97 588.79 L 327.99 637.55 A 2.14 2.14 0.0 0 1 327.56 639.88 L 308.85 659.39 A 0.96 0.95 -34.8 0 1 307.28 659.11 L 268.67 569.55 A 0.26 0.26 0.0 0 1 268.85 569.20 L 431.91 530.53 Z"/>
    <path fill="#3bd9d7"
          d="M 640.98 652.52 L 600.38 652.54 L 600.38 541.05 A 0.72 0.72 0.0 0 1 600.94 540.35 L 640.30 531.01 A 0.63 0.63 0.0 0 1 641.07 531.63 L 640.98 652.52 Z"/>
</svg>