<svg xmlns="http://www.w3.org/2000/svg" direction="ltr" width="1500" height="512" viewBox="0 0 1500 512"
     style="background-color: transparent;">
    <g transform="matrix(1 0 0 1 -205 -178)">
        <path fill="#3bd9d7"
              d="M 697.47 333.46   L 505.45 533.66   A 0.44 0.44 0.0 0 1 504.82 533.66   L 462.15 490.99   A 0.44 0.44 0.0 0 0 461.52 490.99   L 354.50 602.57   A 0.44 0.44 0.0 0 1 354.18 602.71   L 317.70 602.71   A 0.44 0.44 0.0 0 1 317.38 601.97   L 461.31 451.91   A 0.44 0.44 0.0 0 1 461.94 451.91   L 504.66 494.63   A 0.44 0.44 0.0 0 0 505.29 494.63   L 678.03 314.53   A 0.44 0.44 0.0 0 0 678.01 313.91   L 651.69 288.67   A 0.44 0.44 0.0 0 1 651.90 287.92   L 741.15 266.76   A 0.44 0.44 0.0 0 1 741.68 267.26   L 725.24 358.54   A 0.44 0.44 0.0 0 1 724.50 358.78   L 698.09 333.44   A 0.44 0.44 0.0 0 0 697.47 333.46   Z"/>
        <path fill="#3285e8"
              d="M 325.99 454.70   L 350.65 420.17   A 4.58 4.57 -81.0 0 1 352.96 418.49   L 528.13 363.38   A 0.20 0.20 0.0 0 0 528.20 363.04   L 503.34 340.66   A 0.92 0.92 0.0 0 0 502.40 340.49   Q 443.22 363.56 375.36 389.07   Q 374.73 389.31 374.30 389.20   A 0.23 0.23 0.0 0 1 374.17 388.85   Q 388.32 368.29 400.27 351.53   C 401.39 349.96 404.57 349.02 406.47 348.29   Q 408.13 347.66 507.83 309.24   A 1.75 1.74 55.3 0 1 509.63 309.57   L 558.08 353.18   A 0.87 0.87 0.0 0 0 558.93 353.37   L 636.76 328.88   A 0.28 0.28 0.0 0 1 637.04 329.34   Q 619.22 347.35 598.67 368.88   Q 597.39 370.23 594.40 371.17   Q 427.98 423.43 326.32 455.17   A 0.31 0.30 -80.5 0 1 325.99 454.70   Z"/>
        <path fill="#3285e8"
              d="M 600.42 575.27   L 641.02 575.25   L 656.13 575.21   A 0.34 0.34 0.0 0 0 656.45 574.98   L 712.57 417.12   A 0.37 0.37 0.0 0 0 712.14 416.64   L 626.39 436.97   A 0.48 0.48 0.0 0 1 625.94 436.17   L 659.30 402.12   A 6.04 5.97 15.3 0 1 662.20 400.49   L 754.74 378.55   A 0.53 0.53 0.0 0 1 755.36 379.24   L 676.11 602.14   A 0.87 0.86 9.4 0 1 675.29 602.72   L 382.75 602.72   A 0.42 0.42 0.0 0 1 382.44 602.01   L 461.46 519.63   A 0.58 0.57 44.0 0 1 462.28 519.62   L 480.74 537.32   A 0.76 0.76 0.0 0 1 480.76 538.40   L 445.92 574.72   A 0.34 0.34 0.0 0 0 446.16 575.29   L 485.16 575.29   A 0.47 0.46 -90.0 0 0 485.62 574.82   L 485.62 543.31   A 0.35 0.35 0.0 0 1 486.21 543.06   L 504.84 561.68   A 0.62 0.61 -45.3 0 0 505.72 561.67   L 525.77 540.77   A 0.41 0.41 0.0 0 1 526.47 541.05   L 526.47 574.88   A 0.41 0.41 0.0 0 0 526.88 575.29   L 542.29 575.29   A 0.86 0.86 0.0 0 0 543.15 574.43   L 543.15 524.03   A 2.40 2.37 67.3 0 1 543.82 522.37   L 583.16 481.34   A 0.36 0.36 0.0 0 1 583.78 481.59   L 583.78 574.68   A 0.48 0.48 0.0 0 0 584.26 575.16   L 600.42 575.27   Z"/>
        <path fill="#3285e8"
              d="M 542.08 427.71   L 505.04 466.34   A 0.31 0.31 0.0 0 1 504.60 466.35   L 480.46 442.22   A 0.31 0.31 0.0 0 1 480.61 441.70   L 541.79 427.19   A 0.31 0.31 0.0 0 1 542.08 427.71   Z"/>
        <path fill="#3285e8"
              d="M 431.95 453.26   A 0.48 0.47 15.5 0 1 432.40 454.05   Q 412.63 474.10 398.81 488.53   Q 397.47 489.93 394.88 490.44   Q 386.04 492.18 381.13 493.38   Q 356.76 499.36 307.35 510.84   A 0.50 0.49 -18.7 0 0 307.01 511.52   L 328.03 560.28   A 2.14 2.14 0.0 0 1 327.60 562.61   L 308.89 582.12   A 0.96 0.95 -34.8 0 1 307.32 581.84   L 268.71 492.28   A 0.26 0.26 0.0 0 1 268.89 491.93   L 431.95 453.26   Z"/>
        <path fill="#3bd9d7"
              d="M 641.02 575.25   L 600.42 575.27   L 600.42 463.78   A 0.72 0.72 0.0 0 1 600.98 463.08   L 640.34 453.74   A 0.63 0.63 0.0 0 1 641.11 454.36   L 641.02 575.25   Z"/>
    </g>
    <g transform="matrix(1.42 0 0 1.42 329.24 -744.9)">
        <path fill="#3bd9d7"
              d="M 743.46 713.32   A 0.33 0.33 0.0 0 0 744.02 713.56   L 776.78 682.01   A 4.20 4.19 22.9 0 1 779.70 680.83   L 799.18 680.83   A 0.43 0.43 0.0 0 1 799.48 681.56   L 769.63 711.41   A 0.98 0.97 48.8 0 0 769.55 712.69   L 802.21 755.09   A 0.39 0.39 0.0 0 1 801.90 755.72   L 782.02 755.72   A 2.77 2.77 0.0 0 1 779.82 754.63   L 756.49 724.35   A 0.59 0.59 0.0 0 0 755.61 724.29   Q 751.24 728.66 745.62 733.86   Q 744.33 735.05 743.71 736.63   A 2.54 2.51 -34.7 0 0 743.54 737.54   L 743.54 754.94   A 0.81 0.80 -0.0 0 1 742.73 755.74   L 726.41 755.74   A 0.99 0.99 0.0 0 1 725.42 754.75   L 725.42 653.76   A 0.66 0.66 0.0 0 1 726.08 653.10   L 742.83 653.10   A 0.64 0.63 -90.0 0 1 743.46 653.74   L 743.46 713.32   Z"/>
        <path fill="#3285e8"
              d="M 296.86 666.31   L 291.07 679.26   A 0.62 0.62 0.0 0 1 290.18 679.53   Q 282.51 674.70 273.02 672.65   C 265.36 670.99 254.19 671.16 247.49 676.02   C 241.14 680.63 241.57 689.47 248.58 693.21   Q 252.47 695.29 256.07 696.20   Q 267.86 699.18 276.39 701.36   C 292.55 705.49 303.58 715.27 300.45 733.52   C 298.19 746.61 285.51 754.35 273.04 756.35   C 255.97 759.08 237.24 755.94 223.03 745.62   A 1.38 1.37 -60.2 0 1 222.58 743.95   L 228.37 731.01   A 0.81 0.80 30.5 0 1 229.59 730.70   C 240.22 738.85 252.59 742.49 265.74 741.58   C 271.99 741.15 280.89 738.78 282.31 731.88   C 283.83 724.54 278.56 720.03 272.05 717.92   Q 265.84 715.90 251.84 712.64   C 239.18 709.70 225.23 703.71 224.47 688.49   Q 223.54 670.02 239.51 661.72   C 253.10 654.65 271.37 655.13 286.11 660.14   Q 292.20 662.22 296.57 665.28   A 0.85 0.84 29.6 0 1 296.86 666.31   Z"/>
        <path fill="#3bd9d7"
              d="M 618.47 658.38   L 662.51 755.06   A 0.47 0.47 0.0 0 1 662.08 755.72   L 643.26 755.72   A 0.47 0.47 0.0 0 1 642.83 755.44   L 633.03 733.92   A 0.47 0.47 0.0 0 0 632.60 733.64   L 584.31 733.64   A 0.47 0.47 0.0 0 0 583.89 733.92   L 574.25 755.45   A 0.47 0.47 0.0 0 1 573.83 755.73   L 555.61 755.73   A 0.47 0.47 0.0 0 1 555.18 755.07   L 598.43 658.38   A 0.47 0.47 0.0 0 1 598.85 658.10   L 618.04 658.10   A 0.47 0.47 0.0 0 1 618.47 658.38   Z   M 590.48 718.12   A 0.33 0.33 0.0 0 0 590.79 718.58   L 626.15 718.46   A 0.33 0.33 0.0 0 0 626.45 718.00   L 608.63 677.51   A 0.33 0.33 0.0 0 0 608.02 677.51   L 590.48 718.12   Z"/>
        <path fill="#3285e8"
              d="M 334.74 696.31   Q 334.59 715.42 334.79 730.76   C 334.85 736.23 336.59 741.02 342.71 741.80   Q 349.29 742.64 354.41 739.19   A 0.75 0.75 0.0 0 1 355.55 739.59   L 359.23 751.26   A 1.31 1.31 0.0 0 1 358.68 752.76   Q 353.41 756.11 346.75 756.67   C 333.41 757.79 321.57 753.96 317.66 740.02   Q 316.67 736.47 316.65 730.25   Q 316.62 718.11 316.89 696.29   A 0.63 0.63 0.0 0 0 316.26 695.66   L 305.23 695.66   A 0.65 0.65 0.0 0 1 304.58 695.01   L 304.58 681.85   A 0.50 0.50 0.0 0 1 305.08 681.35   L 316.26 681.35   A 0.62 0.62 0.0 0 0 316.88 680.73   L 316.88 664.08   A 0.49 0.49 0.0 0 1 317.37 663.59   L 334.18 663.59   A 0.53 0.52 -0.0 0 1 334.71 664.11   L 334.71 680.88   A 0.50 0.49 90.0 0 0 335.20 681.38   L 354.34 681.38   A 0.56 0.55 -0.0 0 1 354.90 681.93   L 354.90 694.99   A 0.65 0.65 0.0 0 1 354.25 695.64   L 335.42 695.64   A 0.68 0.67 -0.0 0 0 334.74 696.31   Z"/>
        <path fill="#3285e8"
              d="M 529.96 695.60   A 0.68 0.67 -0.2 0 0 529.28 696.28   Q 529.19 715.43 529.44 730.80   C 529.52 736.28 531.28 741.07 537.41 741.84   Q 544.01 742.66 549.13 739.18   A 0.75 0.75 0.0 0 1 550.27 739.58   L 553.99 751.26   A 1.32 1.32 0.0 0 1 553.45 752.77   Q 548.18 756.14 541.50 756.72   C 528.14 757.89 516.27 754.09 512.30 740.13   Q 511.30 736.57 511.26 730.34   Q 511.19 718.18 511.40 696.31   A 0.63 0.63 0.0 0 0 510.77 695.68   L 499.71 695.72   A 0.65 0.65 0.0 0 1 499.06 695.07   L 499.02 681.88   A 0.50 0.50 0.0 0 1 499.52 681.38   L 510.72 681.34   A 0.62 0.62 0.0 0 0 511.34 680.72   L 511.29 664.04   A 0.49 0.49 0.0 0 1 511.78 663.54   L 528.62 663.49   A 0.53 0.52 -0.2 0 1 529.16 664.01   L 529.21 680.82   A 0.50 0.49 89.8 0 0 529.70 681.32   L 548.88 681.26   A 0.56 0.55 -0.2 0 1 549.44 681.81   L 549.48 694.89   A 0.65 0.65 0.0 0 1 548.83 695.55   L 529.96 695.60   Z"/>
        <path fill="#3285e8"
              d="M 473.63 747.95   A 0.36 0.36 0.0 0 0 472.99 747.73   C 468.32 753.71 460.21 756.56 452.87 756.86   Q 445.46 757.16 441.01 756.16   C 430.41 753.79 422.39 747.43 421.29 736.16   C 419.68 719.52 433.44 712.30 448.04 711.62   Q 458.48 711.14 471.20 711.38   A 0.90 0.90 0.0 0 0 472.12 710.49   C 472.15 698.66 464.56 694.62 453.53 694.71   Q 441.25 694.81 431.18 701.70   A 0.52 0.51 57.7 0 1 430.44 701.53   L 424.00 690.37   A 0.94 0.93 56.3 0 1 424.24 689.15   C 437.81 678.74 463.38 676.35 477.55 685.00   C 489.34 692.20 490.77 703.93 490.50 718.01   Q 490.47 719.40 490.54 755.26   A 0.46 0.46 0.0 0 1 490.08 755.72   L 474.10 755.72   A 0.47 0.47 0.0 0 1 473.63 755.25   L 473.63 747.95   Z   M 472.25 724.25   A 1.08 1.08 0.0 0 0 471.16 723.17   Q 462.38 723.29 453.76 723.29   C 447.05 723.30 438.12 725.31 438.99 734.14   C 439.99 744.24 452.67 744.95 459.94 742.98   Q 467.85 740.83 471.72 734.06   A 4.12 4.11 59.7 0 0 472.25 732.04   L 472.25 724.25   Z"/>
        <path fill="#3285e8"
              d="M 388.10 691.06   Q 397.83 678.85 414.40 680.13   A 0.31 0.30 -87.9 0 1 414.68 680.44   L 414.66 696.13   A 0.68 0.67 2.8 0 1 413.92 696.79   Q 409.48 696.34 404.79 697.05   C 394.70 698.61 389.00 707.63 388.82 717.45   Q 388.53 732.89 388.65 754.96   A 0.72 0.71 -0.3 0 1 387.93 755.68   L 371.22 755.65   A 0.70 0.70 0.0 0 1 370.53 754.95   L 370.62 681.17   A 0.40 0.40 0.0 0 1 371.02 680.77   L 387.08 680.79   A 0.59 0.59 0.0 0 1 387.67 681.38   L 387.65 690.90   A 0.25 0.25 0.0 0 0 388.10 691.06   Z"/>
        <path fill="#3bd9d7"
              d="M 688.18 691.09   Q 697.90 678.86 714.49 680.12   A 0.31 0.30 -88.0 0 1 714.77 680.43   L 714.77 696.13   A 0.68 0.67 2.7 0 1 714.03 696.80   Q 709.58 696.35 704.89 697.07   C 694.79 698.64 689.10 707.68 688.93 717.51   Q 688.66 732.96 688.81 755.05   A 0.72 0.71 -0.4 0 1 688.09 755.77   L 671.37 755.77   A 0.70 0.70 0.0 0 1 670.67 755.07   L 670.67 681.22   A 0.40 0.40 0.0 0 1 671.07 680.82   L 687.14 680.82   A 0.59 0.59 0.0 0 1 687.73 681.41   L 687.73 690.93   A 0.25 0.25 0.0 0 0 688.18 691.09   Z"/>
    </g>
</svg>
